<?xml version="1.0" encoding="utf-8"?><svg xmlns="http://www.w3.org/2000/svg" xmlns:xlink="http://www.w3.org/1999/xlink" width="100%" height="100%" preserveAspectRatio="xMidYMid" viewBox="0 0 2519 712" style="z-index:1;margin-right:-2px;display:block;background-color:rgb(1, 44, 50);animation-play-state:running" ><g transform="translate(1259.5,356) scale(1,1) translate(-1259.5,-356)" style="transform:matrix(1, 0, 0, 1, 0, 0);animation-play-state:running" >
<path d="M -100 430.69 C -56.06 422.51 -55.93 421.05 -12.29 421.05 S 32.88 426.08 75.42 426.08 S 120.22 421.2 163.13 421.2 S 208.15 430.74 250.84 430.74 S 296.44 413.34 338.55 413.34 S 382.83 420.8 426.26 420.8 S 471.85 417.64 513.97 417.64 S 558.85 430.1 601.68 430.1 S 646.1 418.47 689.39 418.47 S 733.42 425.47 777.1 425.47 S 821.33 421.89 864.81 421.89 S 909.4 425.22 952.52 425.22 S 997.58 427.27 1040.23 427.27 S 1085.08 415.47 1127.94 415.47 S 1172.74 422.14 1215.65 422.14 S 1259.64 414.39 1303.35 414.39 S 1347.7 429.97 1391.06 429.97 S 1435.45 426.49 1478.77 426.49 S 1523.49 426.01 1566.48 426.01 S 1611.76 418.1 1654.19 418.1 S 1699.05 421.1 1741.9 421.1 S 1787.13 419.86 1829.61 419.86 S 1874.32 420.28 1917.32 420.28 S 1962.21 418.99 2005.03 418.99 S 2050.05 423.31 2092.74 423.31 S 2137.86 425.29 2180.45 425.29 S 2225.82 413.51 2268.16 413.51 S 2312.3 429.99 2355.87 429.99 S 2400.45 423.66 2443.58 423.66 S 2487.73 421.74 2531.29 421.74 S 2575.3 419.43 2619 419.43 S 2663.01 422.96 2706.71 422.96 L 2619 712 L -100 712 Z" fill="#0f3135" stroke-width="0" transform="matrix(1,0,0,1,0,0)" style="transform:matrix(1, 0, 0, 1, 0, 0);animation-play-state:running" ></path>
<path d="M -100 439.44 C -54.13 441.93 -53.8 442.15 -9.97 442.15 S 36.77 437.48 80.07 437.48 S 125.32 446.91 170.1 446.91 S 216.73 432.54 260.13 432.54 S 305.66 451.04 350.17 451.04 S 395.22 434.61 440.2 434.61 S 485.46 436.2 530.23 436.2 S 576.99 440.73 620.26 440.73 S 666.67 435.74 710.3 435.74 S 755.58 440.79 800.33 440.79 S 846.8 443.29 890.36 443.29 S 936.24 448.91 980.4 448.91 S 1025.46 434.56 1070.43 434.56 S 1116.53 444.05 1160.46 444.05 S 1207.11 436.7 1250.5 436.7 S 1296.3 436.87 1340.53 436.87 S 1386.95 439.8 1430.56 439.8 S 1476.79 443.09 1520.6 443.09 S 1566.62 446.53 1610.63 446.53 S 1657.34 439.53 1700.66 439.53 S 1746.91 449.18 1790.7 449.18 S 1837.08 441.01 1880.73 441.01 S 1925.76 448.46 1970.76 448.46 S 2016.46 435.62 2060.79 435.62 S 2106.92 443.65 2150.83 443.65 S 2196.24 435.93 2240.86 435.93 S 2286 440.68 2330.89 440.68 S 2376.91 431.13 2420.93 431.13 S 2466.62 444.97 2510.96 444.97 S 2556.32 442.99 2600.99 442.99 S 2646.57 447.33 2691.03 447.33 L 2619 712 L -100 712 Z" fill="#254346" stroke-width="0" transform="matrix(1,0,0,1,1.1340199708938599,0)" style="transform:matrix(1, 0, 0, 1, 1.13402, 0);animation-play-state:running" ></path>
<path d="M -100 451.58 C -52.09 463.73 -53.64 450.94 -7.52 450.94 S 39 452.2 84.97 452.2 S 132.87 464.56 177.45 464.56 S 224.8 455.11 269.93 455.11 S 316.87 462.31 362.41 462.31 S 409.67 451.76 454.9 451.76 S 501.46 465.09 547.38 465.09 S 594.9 464.96 639.86 464.96 S 686.7 458.66 732.35 458.66 S 780.12 456.61 824.83 456.61 S 872.7 457.62 917.31 457.62 S 963.68 456.47 1009.8 456.47 S 1056.76 469.84 1102.28 469.84 S 1149.75 462.83 1194.76 462.83 S 1241.77 467.17 1287.24 467.17 S 1334.03 469.54 1379.73 469.54 S 1426.97 455.97 1472.21 455.97 S 1519.32 450.99 1564.69 450.99 S 1612.1 463.58 1657.18 463.58 S 1704.92 457.34 1749.66 457.34 S 1796.13 465.75 1842.14 465.75 S 1889.86 456.75 1934.63 456.75 S 1982.02 469.71 2027.11 469.71 S 2075.01 458.9 2119.59 458.9 S 2166.69 456.12 2212.07 456.12 S 2259.79 456.01 2304.56 456.01 S 2351.23 471.97 2397.04 471.97 S 2443.6 472.45 2489.52 472.45 S 2537.35 469.56 2582.01 469.56 S 2629.1 462.43 2674.49 462.43 L 2619 712 L -100 712 Z" fill="#3b5658" stroke-width="0" transform="matrix(1,0,0,1,3.5863146781921387,0)" style="transform:matrix(1, 0, 0, 1, 3.58631, 0);animation-play-state:running" ></path>
<path d="M -100 471.5 C -51.25 466.48 -50.73 489.34 -4.93 489.34 S 42.78 468.06 90.14 468.06 S 138.6 487.02 185.21 487.02 S 233.61 473.55 280.28 473.55 S 328.57 478.17 375.35 478.17 S 424.35 471.58 470.42 471.58 S 518.71 488.09 565.49 488.09 S 613.81 477.41 660.56 477.41 S 708.94 484.43 755.63 484.43 S 803.99 481.31 850.7 481.31 S 899.25 484.59 945.77 484.59 S 994.3 467.66 1040.84 467.66 S 1089.47 485.29 1135.91 485.29 S 1184.67 483.91 1230.98 483.91 S 1279.98 491.74 1326.05 491.74 S 1373.93 480.4 1421.12 480.4 S 1470.03 494.6 1516.19 494.6 S 1564.7 472.66 1611.26 472.66 S 1659.54 478.8 1706.33 478.8 S 1754.71 468.22 1801.4 468.22 S 1850.04 487.9 1896.47 487.9 S 1945.77 483.2 1991.54 483.2 S 2040.65 489.56 2086.61 489.56 S 2135.49 478.99 2181.68 478.99 S 2229.61 486.6 2276.75 486.6 S 2324.54 476.38 2371.82 476.38 S 2420.04 483.61 2466.89 483.61 S 2515.07 469.12 2561.96 469.12 S 2610.96 475.32 2657.03 475.32 L 2619 712 L -100 712 Z" fill="#51696b" stroke-width="0" transform="matrix(1,0,0,1,6.4136857986450195,0)" style="transform:matrix(1, 0, 0, 1, 6.41369, 0);animation-play-state:running" ></path>
<path d="M -100 495.04 C -50.3 496.42 -50.88 502.25 -2.19 502.25 S 47.88 501.76 95.61 501.76 S 145.69 500.76 193.42 500.76 S 243.73 500.83 291.22 500.83 S 341.67 502.57 389.03 502.57 S 438.04 496.66 486.83 496.66 S 535.89 510.2 584.64 510.2 S 633.72 501.29 682.45 501.29 S 731.75 504.3 780.25 504.3 S 829.58 497.28 878.06 497.28 S 928.5 506.33 975.86 506.33 S 1025.24 500.51 1073.67 500.51 S 1122.59 512.3 1171.47 512.3 S 1221.58 494.21 1269.28 494.21 S 1319.65 495.03 1367.09 495.03 S 1416.94 500.98 1464.89 500.98 S 1514.03 506.44 1562.7 506.44 S 1612.33 494.96 1660.5 494.96 S 1710.46 505.61 1758.31 505.61 S 1807.49 495.94 1856.12 495.94 S 1905.74 500.36 1953.92 500.36 S 2003.46 489.07 2051.73 489.07 S 2102.11 502.11 2149.53 502.11 S 2199 498.55 2247.34 498.55 S 2296.48 508.83 2345.14 508.83 S 2395.36 486.34 2442.95 486.34 S 2492.59 487.53 2540.76 487.53 S 2589.93 494.95 2638.56 494.95 L 2619 712 L -100 712 Z" fill="#677d7f" stroke-width="0" transform="matrix(1,0,0,1,8.86598014831543,0)" style="transform:matrix(1, 0, 0, 1, 8.86598, 0);animation-play-state:running" ></path>
<path d="M -100 512.56 C -48.7 513.31 -48.66 534.91 0.7 534.91 S 52.28 503.48 101.41 503.48 S 152.88 534.93 202.11 534.93 S 254.09 511.2 302.81 511.2 S 354.61 526.07 403.52 526.07 S 455.55 530.39 504.22 530.39 S 555.65 532.41 604.93 532.41 S 656.37 508.77 705.63 508.77 S 756.01 517.51 806.33 517.51 S 857.82 509.74 907.04 509.74 S 959.02 530.08 1007.74 530.08 S 1059.44 536.07 1108.44 536.07 S 1159.58 534.29 1209.15 534.29 S 1259.92 513.24 1309.85 513.24 S 1361.81 522.4 1410.56 522.4 S 1461.87 505.77 1511.26 505.77 S 1562.29 521.95 1611.96 521.95 S 1663.7 503.62 1712.67 503.62 S 1764.64 526.68 1813.37 526.68 S 1864.7 534.19 1914.07 534.19 S 1964.99 525.02 2014.78 525.02 S 2065.64 505.42 2115.48 505.42 S 2165.88 506.56 2216.19 506.56 S 2268.09 513.65 2316.89 513.65 S 2367.46 520.37 2417.59 520.37 S 2469.12 516.02 2518.3 516.02 S 2569.64 512.19 2619 512.19 S 2670 537.47 2719.7 537.47 L 2619 712 L -100 712 Z" fill="#7e9193" stroke-width="0" transform="matrix(1,0,0,1,10,0)" style="transform:matrix(1, 0, 0, 1, 10, 0);animation-play-state:running" ></path>
<path d="M -100 530.5 C -46.37 532.56 -46.83 551.37 3.78 551.37 S 56.49 533.24 107.56 533.24 S 159.51 533.99 211.34 533.99 S 263.4 534.83 315.11 534.83 S 367.01 549.22 418.89 549.22 S 472.15 535.22 522.67 535.22 S 575.34 527 626.45 527 S 679.22 530.27 730.23 530.27 S 783.59 553.69 834.01 553.69 S 886.78 530.8 937.79 530.8 S 990.02 553.13 1041.56 553.13 S 1095.09 520.31 1145.34 520.31 S 1198.38 520.51 1249.12 520.51 S 1302.78 528.88 1352.9 528.88 S 1405.67 552.49 1456.68 552.49 S 1509.29 534.56 1560.46 534.56 S 1613.85 552.56 1664.24 552.56 S 1717.22 528.39 1768.02 528.39 S 1820.48 543.97 1871.79 543.97 S 1925.3 532.6 1975.57 532.6 S 2028.43 551.42 2079.35 551.42 S 2132.77 526.52 2183.13 526.52 S 2236.71 550.14 2286.91 550.14 S 2340.01 535.07 2390.69 535.07 S 2443.04 524.24 2494.47 524.24 S 2547.59 553.96 2598.24 553.96 S 2651.74 544.68 2702.02 544.68 L 2619 712 L -100 712 Z" fill="#95a6a7" stroke-width="0" transform="matrix(1,0,0,1,8.86598014831543,0)" style="transform:matrix(1, 0, 0, 1, 8.86598, 0);animation-play-state:running" ></path>
<path d="M -100 564.94 C -45.92 574.98 -45.71 577.05 7.05 577.05 S 61.37 553.39 114.09 553.39 S 169.04 542.89 221.14 542.89 S 275.25 539.1 328.19 539.1 S 382.21 573.73 435.24 573.73 S 489.9 551.53 542.28 551.53 S 596.68 568.3 649.33 568.3 S 704.62 565.82 756.38 565.82 S 810.05 567.69 863.43 567.69 S 917.36 554.17 970.47 554.17 S 1024.34 576.8 1077.52 576.8 S 1131.77 539.68 1184.57 539.68 S 1238.13 575.61 1291.61 575.61 S 1345.46 543.76 1398.66 543.76 S 1453.96 578.46 1505.71 578.46 S 1559.76 545.39 1612.76 545.39 S 1666.73 578.25 1719.8 578.25 S 1773.86 541.62 1826.85 541.62 S 1881.16 573.35 1933.9 573.35 S 1988.43 580.04 2040.94 580.04 S 2094.93 539.66 2147.99 539.66 S 2203.23 543.29 2255.04 543.29 S 2309.34 566.02 2362.09 566.02 S 2415.75 543.18 2469.13 543.18 S 2523.93 575.49 2576.18 575.49 S 2629.96 555.29 2683.23 555.29 L 2619 712 L -100 712 Z" fill="#adbcbc" stroke-width="0" transform="matrix(1,0,0,1,6.4136857986450195,0)" style="transform:matrix(1, 0, 0, 1, 6.41369, 0);animation-play-state:running" ></path>
<path d="M -100 571.44 C -44.15 560.04 -44.69 597.24 10.53 597.24 S 66.21 570.17 121.06 570.17 S 176.52 587.84 231.59 587.84 S 287.18 562.88 342.11 562.88 S 399.14 597.86 452.64 597.86 S 508.01 564.23 563.17 564.23 S 618.46 590.91 673.7 590.91 S 729.15 557.9 784.23 557.9 S 840.65 568.46 894.76 568.46 S 950.46 567.16 1005.28 567.16 S 1060.85 588.25 1115.81 588.25 S 1171.5 572.39 1226.34 572.39 S 1282.47 596.57 1336.87 596.57 S 1393.75 568.09 1447.4 568.09 S 1504.03 584.3 1557.93 584.3 S 1613.3 564.72 1668.46 564.72 S 1725.11 584.66 1778.98 584.66 S 1834.87 566.44 1889.51 566.44 S 1945.05 593.49 2000.04 593.49 S 2056.72 565.58 2110.57 565.58 S 2167.5 598.12 2221.1 598.12 S 2276.81 590.85 2331.63 590.85 S 2387.3 589.44 2442.15 589.44 S 2499.03 587.7 2552.68 587.7 S 2609.3 586.53 2663.21 586.53 L 2619 712 L -100 712 Z" fill="#c6d2d2" stroke-width="0" transform="matrix(1,0,0,1,3.5863142013549805,0)" style="transform:matrix(1, 0, 0, 1, 3.58631, 0);animation-play-state:running" ></path>
<path d="M -100 588.56 C -41.11 576.82 -41.62 611.28 14.24 611.28 S 71.73 580.7 128.49 580.7 S 187.13 607.76 242.73 607.76 S 301.31 588.8 356.97 588.8 S 414.19 609.56 471.22 609.56 S 529.54 585.11 585.46 585.11 S 643.38 581.76 699.71 581.76 S 757.41 588.97 813.95 588.97 S 872.34 619.75 928.19 619.75 S 986.17 582.16 1042.44 582.16 S 1100.09 610.71 1156.68 610.71 S 1215.4 580.85 1270.92 580.85 S 1328.36 609.77 1385.17 609.77 S 1443.84 584.89 1499.41 584.89 S 1558.09 605.69 1613.66 605.69 S 1670.92 577.21 1727.9 577.21 S 1786.68 607.54 1842.14 607.54 S 1900.67 577 1956.39 577 S 2013.59 620.79 2070.63 620.79 S 2128.27 621.19 2184.87 621.19 S 2242.18 613.67 2299.12 613.67 S 2357.85 585.01 2413.36 585.01 S 2471.33 616.12 2527.61 616.12 S 2585.47 579.34 2641.85 579.34 L 2619 712 L -100 712 Z" fill="#dfe8e8" stroke-width="0" transform="matrix(1,0,0,1,1.1340198516845703,0)" style="transform:matrix(1, 0, 0, 1, 1.13402, 0);animation-play-state:running" ></path></g></svg>
